<svg xmlns="http://www.w3.org/2000/svg" viewBox="0 0 1280 720" role="img" aria-label="Notion theme preview">
  <rect width="1280" height="720" fill="#fafaf9"/>
  <rect x="0" y="0" width="1280" height="230" fill="#0a1530"/>
  <circle cx="118" cy="74" r="12" fill="#ff64c8"/>
  <circle cx="188" cy="130" r="9" fill="#f5d75e"/>
  <circle cx="1050" cy="72" r="11" fill="#2a9d99"/>
  <circle cx="1138" cy="148" r="8" fill="#dd5b00"/>
  <text x="395" y="100" font-family="Inter, Arial, sans-serif" font-size="22" font-weight="600" fill="#ffffff">PandaBlog Workspace</text>
  <text x="312" y="162" font-family="Inter, Arial, sans-serif" font-size="56" font-weight="600" fill="#ffffff">Ideas, organized beautifully</text>
  <rect x="505" y="184" width="132" height="40" rx="8" fill="#5645d4"/>
  <text x="532" y="209" font-family="Inter, Arial, sans-serif" font-size="14" font-weight="600" fill="#ffffff">Read now</text>
  <rect x="652" y="184" width="132" height="40" rx="8" fill="none" stroke="#a4a097"/>
  <text x="682" y="209" font-family="Inter, Arial, sans-serif" font-size="14" font-weight="600" fill="#ffffff">Browse</text>
  <rect x="250" y="255" width="780" height="350" rx="14" fill="#ffffff" stroke="#e5e3df"/>
  <rect x="286" y="292" width="190" height="90" rx="12" fill="#ffe8d4"/>
  <rect x="502" y="292" width="190" height="90" rx="12" fill="#d9f3e1"/>
  <rect x="718" y="292" width="190" height="90" rx="12" fill="#e6e0f5"/>
  <rect x="286" y="422" width="622" height="14" rx="6" fill="#f0eeec"/>
  <rect x="286" y="462" width="520" height="14" rx="6" fill="#f0eeec"/>
  <rect x="286" y="502" width="584" height="14" rx="6" fill="#f0eeec"/>
  <rect x="286" y="542" width="430" height="14" rx="6" fill="#f0eeec"/>
  <text x="314" y="343" font-family="Inter, Arial, sans-serif" font-size="16" font-weight="600" fill="#37352f">Peach notes</text>
  <text x="530" y="343" font-family="Inter, Arial, sans-serif" font-size="16" font-weight="600" fill="#37352f">Mint tags</text>
  <text x="746" y="343" font-family="Inter, Arial, sans-serif" font-size="16" font-weight="600" fill="#37352f">Lavender tasks</text>
</svg>