<svg xmlns="http://www.w3.org/2000/svg" viewBox="0 0 1280 720" role="img" aria-label="Clay theme preview">
  <rect width="1280" height="720" fill="#fffaf0"/>
  <rect x="70" y="46" width="1140" height="628" rx="34" fill="#faf5e8"/>
  <text x="116" y="112" font-family="Inter, Arial, sans-serif" font-size="24" font-weight="700" fill="#0a0a0a">ClayBlog</text>
  <rect x="1036" y="78" width="118" height="44" rx="12" fill="#0a0a0a"/>
  <text x="1065" y="106" font-family="Inter, Arial, sans-serif" font-size="14" font-weight="700" fill="#ffffff">Try free</text>
  <text x="116" y="225" font-family="Inter, Arial, sans-serif" font-size="68" font-weight="700" letter-spacing="-3" fill="#0a0a0a">Warm data stories</text>
  <text x="116" y="278" font-family="Inter, Arial, sans-serif" font-size="18" fill="#3a3a3a">Cream canvas, dark actions, and saturated clay-color cards.</text>
  <rect x="116" y="333" width="172" height="48" rx="12" fill="#0a0a0a"/>
  <text x="153" y="363" font-family="Inter, Arial, sans-serif" font-size="14" font-weight="700" fill="#ffffff">Start reading</text>
  <rect x="320" y="333" width="172" height="48" rx="12" fill="#fffaf0" stroke="#e5e5e5"/>
  <text x="358" y="363" font-family="Inter, Arial, sans-serif" font-size="14" font-weight="700" fill="#0a0a0a">Browse posts</text>
  <rect x="116" y="462" width="252" height="138" rx="24" fill="#ff4d8b"/>
  <rect x="398" y="462" width="252" height="138" rx="24" fill="#1a3a3a"/>
  <rect x="680" y="462" width="252" height="138" rx="24" fill="#b8a4ed"/>
  <text x="146" y="535" font-family="Inter, Arial, sans-serif" font-size="20" font-weight="700" fill="#ffffff">Outbound</text>
  <text x="428" y="535" font-family="Inter, Arial, sans-serif" font-size="20" font-weight="700" fill="#ffffff">Signals</text>
  <text x="710" y="535" font-family="Inter, Arial, sans-serif" font-size="20" font-weight="700" fill="#0a0a0a">Research</text>
  <circle cx="958" cy="226" r="92" fill="#ffb084"/>
  <circle cx="1068" cy="250" r="74" fill="#e8b94a"/>
  <circle cx="1008" cy="164" r="52" fill="#a4d4c5"/>
  <rect x="900" y="330" width="248" height="190" rx="28" fill="#f5f0e0" stroke="#e5e5e5"/>
  <rect x="930" y="370" width="188" height="12" rx="6" fill="#0a0a0a" opacity="0.18"/>
  <rect x="930" y="410" width="146" height="12" rx="6" fill="#0a0a0a" opacity="0.18"/>
  <rect x="930" y="450" width="170" height="12" rx="6" fill="#0a0a0a" opacity="0.18"/>
</svg>